<?xml version="1.0" standalone="no"?>
<!DOCTYPE svg PUBLIC "-//W3C//DTD SVG 20010904//EN"
 "http://www.w3.org/TR/2001/REC-SVG-20010904/DTD/svg10.dtd">
<svg version="1.0" xmlns="http://www.w3.org/2000/svg"
 width="512.000000pt" height="512.000000pt" viewBox="0 0 512.000000 512.000000"
 preserveAspectRatio="xMidYMid meet">

<g transform="translate(0.000000,512.000000) scale(0.100000,-0.100000)"
fill="#000000" stroke="none">
<path d="M2345 4789 c-413 -40 -791 -188 -1135 -443 -123 -91 -346 -315 -436
-436 -229 -309 -361 -617 -426 -1000 -18 -103 -22 -165 -22 -350 0 -185 4
-247 22 -350 66 -383 197 -692 426 -1000 39 -52 131 -156 206 -230 345 -346
739 -548 1230 -632 169 -29 510 -31 675 -5 511 83 943 307 1289 668 447 466
673 1103 617 1735 -18 209 -35 284 -71 317 -55 49 -137 31 -165 -37 -11 -26
-10 -49 7 -151 26 -160 27 -455 3 -605 -72 -453 -260 -826 -575 -1140 -266
-267 -577 -444 -940 -535 -313 -79 -662 -79 -980 0 -584 146 -1079 550 -1339
1095 -448 939 -104 2073 790 2608 413 247 920 341 1394 258 66 -12 85 -12 111
-1 68 28 86 110 37 165 -23 25 -42 33 -103 44 -174 33 -430 44 -615 25z"/>
<path d="M4104 4781 c-48 -29 -54 -61 -54 -297 l0 -214 -215 0 c-164 0 -224
-3 -250 -14 -35 -15 -65 -59 -65 -96 0 -37 30 -81 65 -96 26 -11 86 -14 250
-14 l215 0 0 -215 c0 -240 6 -272 59 -299 38 -20 64 -20 102 0 53 27 59 59 59
299 l0 215 215 0 c164 0 224 3 250 14 35 15 65 59 65 96 0 37 -30 81 -65 96
-26 11 -86 14 -250 14 l-215 0 0 215 c0 240 -6 272 -59 299 -40 21 -69 20
-107 -3z"/>
<path d="M1654 3719 c-11 -6 -28 -23 -37 -39 -16 -26 -17 -118 -17 -1120 0
-1001 1 -1094 17 -1120 34 -58 116 -68 164 -21 l29 29 0 1112 0 1112 -29 29
c-31 31 -84 38 -127 18z"/>
<path d="M2741 3714 c-178 -48 -329 -201 -376 -379 -23 -89 -23 -1461 0 -1549
48 -182 199 -333 380 -381 83 -21 397 -21 480 1 179 46 322 182 378 359 19 62
22 92 22 260 0 156 -3 201 -18 250 -57 185 -187 315 -372 372 -49 15 -94 18
-250 18 -212 0 -282 -14 -378 -75 l-48 -30 3 362 3 363 25 50 c13 28 43 68 65
90 22 22 63 52 90 65 48 24 58 25 240 25 188 0 191 0 247 -28 101 -49 162
-139 177 -256 11 -85 21 -104 67 -126 34 -16 39 -16 81 0 63 24 77 61 64 160
-31 223 -182 395 -396 450 -80 20 -406 20 -484 -1z m494 -1296 c60 -32 114
-87 146 -148 23 -43 24 -54 24 -245 0 -189 -1 -202 -23 -243 -35 -66 -88 -119
-150 -149 -56 -28 -59 -28 -247 -28 l-190 0 -65 36 c-75 41 -129 105 -154 181
-22 69 -23 332 -1 406 27 90 120 185 209 211 17 6 114 9 216 8 179 -2 187 -3
235 -29z"/>
</g>
</svg>
