<?xml version="1.0" standalone="no"?>
<!DOCTYPE svg PUBLIC "-//W3C//DTD SVG 20010904//EN"
 "http://www.w3.org/TR/2001/REC-SVG-20010904/DTD/svg10.dtd">
<svg version="1.0" xmlns="http://www.w3.org/2000/svg"
 width="512.000000pt" height="512.000000pt" viewBox="0 0 512.000000 512.000000"
 preserveAspectRatio="xMidYMid meet">

<g transform="translate(0.000000,512.000000) scale(0.100000,-0.100000)"
fill="#000000" stroke="none">
<path d="M2345 4789 c-413 -40 -791 -188 -1135 -443 -123 -91 -346 -315 -436
-436 -229 -309 -361 -617 -426 -1000 -18 -103 -22 -165 -22 -350 0 -185 4
-247 22 -350 66 -383 197 -692 426 -1000 39 -52 131 -156 206 -230 345 -346
739 -548 1230 -632 169 -29 510 -31 675 -5 511 83 943 307 1289 668 447 466
673 1103 617 1735 -18 209 -35 284 -71 317 -55 49 -137 31 -165 -37 -11 -26
-10 -49 7 -151 26 -160 27 -455 3 -605 -72 -453 -260 -826 -575 -1140 -266
-267 -577 -444 -940 -535 -313 -79 -662 -79 -980 0 -584 146 -1079 550 -1339
1095 -448 939 -104 2073 790 2608 413 247 920 341 1394 258 66 -12 85 -12 111
-1 68 28 86 110 37 165 -23 25 -42 33 -103 44 -174 33 -430 44 -615 25z"/>
<path d="M4104 4781 c-48 -29 -54 -61 -54 -297 l0 -214 -215 0 c-164 0 -224
-3 -250 -14 -35 -15 -65 -59 -65 -96 0 -37 30 -81 65 -96 26 -11 86 -14 250
-14 l215 0 0 -215 c0 -240 6 -272 59 -299 38 -20 64 -20 102 0 53 27 59 59 59
299 l0 215 215 0 c164 0 224 3 250 14 35 15 65 59 65 96 0 37 -30 81 -65 96
-26 11 -86 14 -250 14 l-215 0 0 215 c0 240 -6 272 -59 299 -40 21 -69 20
-107 -3z"/>
<path d="M1654 3719 c-11 -6 -28 -23 -37 -39 -16 -26 -17 -118 -17 -1120 0
-1001 1 -1094 17 -1120 34 -58 116 -68 164 -21 l29 29 0 1112 0 1112 -29 29
c-31 31 -84 38 -127 18z"/>
<path d="M2830 3714 c-272 -71 -480 -330 -480 -597 0 -62 3 -71 29 -98 21 -21
39 -29 65 -29 72 0 116 44 116 117 0 21 6 61 14 89 53 199 242 336 441 321
273 -21 448 -270 379 -541 -48 -192 -291 -570 -608 -950 -116 -138 -335 -384
-381 -426 -63 -58 -74 -133 -26 -181 l29 -29 575 0 c561 0 575 0 600 20 38 30
52 80 33 123 -28 67 -27 67 -496 67 l-421 0 99 113 c494 561 776 1012 822
1310 32 210 -72 451 -250 582 -67 49 -158 93 -232 110 -79 19 -236 18 -308 -1z"/>
</g>
</svg>
