<?xml version="1.0" standalone="no"?>
<!DOCTYPE svg PUBLIC "-//W3C//DTD SVG 20010904//EN"
 "http://www.w3.org/TR/2001/REC-SVG-20010904/DTD/svg10.dtd">
<svg version="1.0" xmlns="http://www.w3.org/2000/svg"
 width="512.000000pt" height="512.000000pt" viewBox="0 0 512.000000 512.000000"
 preserveAspectRatio="xMidYMid meet">

<g transform="translate(0.000000,512.000000) scale(0.100000,-0.100000)"
fill="#000000" stroke="none">
<path d="M2345 4789 c-413 -40 -791 -188 -1135 -443 -123 -91 -346 -315 -436
-436 -229 -309 -361 -617 -426 -1000 -18 -103 -22 -165 -22 -350 0 -185 4
-247 22 -350 66 -383 197 -692 426 -1000 39 -52 131 -156 206 -230 345 -346
739 -548 1230 -632 169 -29 510 -31 675 -5 511 83 943 307 1289 668 447 466
673 1103 617 1735 -18 209 -35 284 -71 317 -55 49 -137 31 -165 -37 -11 -26
-10 -49 7 -151 26 -160 27 -455 3 -605 -72 -453 -260 -826 -575 -1140 -266
-267 -577 -444 -940 -535 -313 -79 -662 -79 -980 0 -584 146 -1079 550 -1339
1095 -448 939 -104 2073 790 2608 413 247 920 341 1394 258 66 -12 85 -12 111
-1 68 28 86 110 37 165 -23 25 -42 33 -103 44 -174 33 -430 44 -615 25z"/>
<path d="M4104 4781 c-48 -29 -54 -61 -54 -297 l0 -214 -215 0 c-164 0 -224
-3 -250 -14 -35 -15 -65 -59 -65 -96 0 -37 30 -81 65 -96 26 -11 86 -14 250
-14 l215 0 0 -215 c0 -240 6 -272 59 -299 38 -20 64 -20 102 0 53 27 59 59 59
299 l0 215 215 0 c164 0 224 3 250 14 35 15 65 59 65 96 0 37 -30 81 -65 96
-26 11 -86 14 -250 14 l-215 0 0 215 c0 240 -6 272 -59 299 -40 21 -69 20
-107 -3z"/>
<path d="M1925 3714 c-171 -41 -336 -174 -414 -334 -65 -133 -89 -282 -54
-340 31 -54 112 -67 158 -27 23 19 29 37 41 115 17 118 52 191 125 265 168
168 430 168 598 0 66 -66 104 -140 121 -232 23 -128 -27 -280 -172 -521 -150
-249 -447 -631 -731 -937 -151 -163 -157 -171 -157 -204 0 -39 26 -84 57 -98
16 -8 204 -11 589 -11 l566 0 35 35 c32 32 35 40 30 77 -3 26 -15 51 -31 67
l-26 26 -432 5 -431 5 79 90 c533 605 821 1074 841 1370 19 293 -196 581 -487
649 -81 19 -225 19 -305 0z"/>
<path d="M3301 3714 c-53 -37 -51 -1 -51 -1154 0 -1153 -2 -1117 51 -1154 30
-21 88 -21 118 0 53 37 51 1 51 1154 0 1153 2 1117 -51 1154 -13 9 -39 16 -59
16 -20 0 -46 -7 -59 -16z"/>
</g>
</svg>
