<?xml version="1.0" standalone="no"?>
<!DOCTYPE svg PUBLIC "-//W3C//DTD SVG 20010904//EN"
 "http://www.w3.org/TR/2001/REC-SVG-20010904/DTD/svg10.dtd">
<svg version="1.0" xmlns="http://www.w3.org/2000/svg"
 width="512.000000pt" height="512.000000pt" viewBox="0 0 512.000000 512.000000"
 preserveAspectRatio="xMidYMid meet">

<g transform="translate(0.000000,512.000000) scale(0.100000,-0.100000)"
fill="#000000" stroke="none">
<path d="M2345 4789 c-413 -40 -791 -188 -1135 -443 -123 -91 -346 -315 -436
-436 -229 -309 -361 -617 -426 -1000 -18 -103 -22 -165 -22 -350 0 -185 4
-247 22 -350 66 -383 197 -692 426 -1000 39 -52 131 -156 206 -230 345 -346
739 -548 1230 -632 169 -29 510 -31 675 -5 511 83 943 307 1289 668 447 466
673 1103 617 1735 -18 209 -35 284 -71 317 -55 49 -137 31 -165 -37 -11 -26
-10 -49 7 -151 26 -160 27 -455 3 -605 -72 -453 -260 -826 -575 -1140 -266
-267 -577 -444 -940 -535 -313 -79 -662 -79 -980 0 -584 146 -1079 550 -1339
1095 -448 939 -104 2073 790 2608 413 247 920 341 1394 258 66 -12 85 -12 111
-1 68 28 86 110 37 165 -23 25 -42 33 -103 44 -174 33 -430 44 -615 25z"/>
<path d="M4104 4781 c-48 -29 -54 -61 -54 -297 l0 -214 -215 0 c-164 0 -224
-3 -250 -14 -35 -15 -65 -59 -65 -96 0 -37 30 -81 65 -96 26 -11 86 -14 250
-14 l215 0 0 -215 c0 -240 6 -272 59 -299 38 -20 64 -20 102 0 53 27 59 59 59
299 l0 215 215 0 c164 0 224 3 250 14 35 15 65 59 65 96 0 37 -30 81 -65 96
-26 11 -86 14 -250 14 l-215 0 0 215 c0 240 -6 272 -59 299 -40 21 -69 20
-107 -3z"/>
<path d="M2144 3719 c-49 -14 -125 -70 -161 -117 -47 -61 -63 -127 -63 -251 0
-88 3 -112 20 -138 34 -57 121 -61 168 -8 19 23 22 37 22 121 0 59 5 107 14
129 27 64 36 65 416 65 380 0 389 -1 416 -65 20 -49 21 -670 1 -718 -26 -62
-26 -62 -308 -67 l-258 -5 -30 -29 c-26 -25 -31 -37 -31 -76 0 -39 5 -51 31
-76 l30 -29 258 -5 c282 -5 282 -5 308 -67 20 -48 19 -669 -1 -718 -27 -64
-36 -65 -416 -65 -380 0 -389 1 -416 65 -9 22 -14 70 -14 129 0 84 -3 98 -22
121 -47 53 -133 49 -169 -8 -18 -28 -20 -46 -17 -157 3 -113 6 -130 31 -182
30 -62 83 -115 149 -150 43 -23 44 -23 458 -23 414 0 415 0 458 23 66 35 119
88 149 150 l28 57 3 378 c3 411 0 443 -52 520 l-25 37 25 37 c52 77 55 109 52
520 l-3 378 -28 57 c-30 62 -83 115 -149 150 -43 23 -47 23 -443 25 -224 1
-414 -2 -431 -8z"/>
</g>
</svg>
