<?xml version="1.0" standalone="no"?>
<!DOCTYPE svg PUBLIC "-//W3C//DTD SVG 20010904//EN"
 "http://www.w3.org/TR/2001/REC-SVG-20010904/DTD/svg10.dtd">
<svg version="1.0" xmlns="http://www.w3.org/2000/svg"
 width="512.000000pt" height="512.000000pt" viewBox="0 0 512.000000 512.000000"
 preserveAspectRatio="xMidYMid meet">

<g transform="translate(0.000000,512.000000) scale(0.100000,-0.100000)"
fill="#000000" stroke="none">
<path d="M2345 4789 c-413 -40 -791 -188 -1135 -443 -123 -91 -346 -315 -436
-436 -229 -309 -361 -617 -426 -1000 -18 -103 -22 -165 -22 -350 0 -185 4
-247 22 -350 66 -383 197 -692 426 -1000 39 -52 131 -156 206 -230 345 -346
739 -548 1230 -632 169 -29 510 -31 675 -5 511 83 943 307 1289 668 447 466
673 1103 617 1735 -18 209 -35 284 -71 317 -55 49 -137 31 -165 -37 -11 -26
-10 -49 7 -151 26 -160 27 -455 3 -605 -72 -453 -260 -826 -575 -1140 -266
-267 -577 -444 -940 -535 -313 -79 -662 -79 -980 0 -584 146 -1079 550 -1339
1095 -448 939 -104 2073 790 2608 413 247 920 341 1394 258 66 -12 85 -12 111
-1 68 28 86 110 37 165 -23 25 -42 33 -103 44 -174 33 -430 44 -615 25z"/>
<path d="M4104 4781 c-48 -29 -54 -61 -54 -297 l0 -214 -215 0 c-164 0 -224
-3 -250 -14 -35 -15 -65 -59 -65 -96 0 -37 30 -81 65 -96 26 -11 86 -14 250
-14 l215 0 0 -215 c0 -240 6 -272 59 -299 38 -20 64 -20 102 0 53 27 59 59 59
299 l0 215 215 0 c164 0 224 3 250 14 35 15 65 59 65 96 0 37 -30 81 -65 96
-26 11 -86 14 -250 14 l-215 0 0 215 c0 240 -6 272 -59 299 -40 21 -69 20
-107 -3z"/>
<path d="M2317 3715 c-190 -52 -337 -205 -381 -397 -23 -98 -23 -1420 -1
-1517 41 -173 172 -321 340 -383 53 -20 84 -23 255 -26 222 -4 270 3 377 55
135 65 243 205 279 359 12 55 15 108 12 254 -4 166 -7 192 -29 250 -62 164
-176 275 -339 330 -51 17 -97 23 -210 27 -221 8 -338 -13 -452 -84 l-38 -23 0
324 c0 344 6 403 45 472 33 57 103 118 161 140 42 16 76 19 229 19 168 0 183
-2 233 -24 102 -46 172 -149 188 -276 8 -63 27 -93 68 -110 40 -17 93 -6 121
25 25 28 30 103 11 181 -47 204 -189 352 -389 405 -70 18 -412 18 -480 -1z
m467 -1286 c70 -26 139 -92 174 -167 26 -55 27 -63 27 -227 0 -139 -3 -180
-18 -223 -25 -70 -101 -152 -169 -183 -50 -22 -65 -24 -233 -24 -208 0 -248
10 -323 78 -95 88 -118 172 -109 390 6 135 8 145 39 207 23 46 47 75 83 102
79 60 108 66 302 67 151 1 179 -2 227 -20z"/>
</g>
</svg>
