<?xml version="1.0" standalone="no"?>
<!DOCTYPE svg PUBLIC "-//W3C//DTD SVG 20010904//EN"
 "http://www.w3.org/TR/2001/REC-SVG-20010904/DTD/svg10.dtd">
<svg version="1.0" xmlns="http://www.w3.org/2000/svg"
 width="160.000000pt" height="160.000000pt" viewBox="0 0 160.000000 160.000000"
 preserveAspectRatio="xMidYMid meet">

<g transform="translate(0.000000,160.000000) scale(0.100000,-0.100000)"
fill="#FFFFFF" stroke="none">
<path d="M668 1590 c-235 -43 -435 -183 -563 -396 -20 -32 -50 -102 -67 -154
-29 -87 -31 -107 -32 -230 -1 -86 4 -155 13 -190 74 -288 289 -509 577 -592
102 -29 294 -31 394 -4 292 80 500 284 582 572 32 113 32 297 0 408 -82 284
-293 494 -577 573 -61 17 -262 25 -327 13z m302 -155 c111 -30 199 -82 291
-174 136 -135 193 -274 192 -466 0 -155 -54 -303 -150 -417 -44 -52 -130 -128
-144 -128 -3 0 -9 45 -12 99 -4 77 -11 112 -30 155 -47 103 -149 187 -246 202
l-43 7 46 16 c171 60 223 273 96 399 -53 54 -87 67 -171 67 -67 0 -81 -3 -125
-30 -70 -44 -107 -108 -112 -194 -3 -54 0 -76 18 -114 28 -59 90 -114 150
-131 l45 -13 -45 -7 c-47 -7 -129 -49 -167 -85 -74 -70 -113 -174 -113 -298 0
-40 -3 -73 -7 -73 -16 0 -91 67 -142 125 -58 66 -122 189 -142 275 -17 71 -17
229 0 300 7 30 31 93 53 140 33 69 57 100 127 171 71 70 103 94 171 127 47 22
110 45 140 51 30 6 64 13 75 15 35 9 188 -3 245 -19z"/>
</g>
</svg>
