<svg width="214" height="214" viewBox="0 0 214 214" fill="none" xmlns="http://www.w3.org/2000/svg">
<path d="M89.0667 1.33344C57.7333 7.06677 31.0667 25.7334 14 54.1334C11.3333 58.4001 7.33333 67.7334 5.06666 74.6668C1.2 86.2668 0.93333 88.9334 0.799997 105.333C0.666664 116.8 1.33333 126 2.53333 130.667C12.4 169.067 41.0667 198.533 79.4667 209.6C93.0667 213.467 118.667 213.733 132 210.133C170.933 199.467 198.667 172.267 209.6 133.867C213.867 118.8 213.867 94.2668 209.6 79.4668C198.667 41.6001 170.533 13.6001 132.667 3.06677C124.533 0.800103 97.7333 -0.266564 89.0667 1.33344ZM129.333 22.0001C144.133 26.0001 155.867 32.9334 168.133 45.2001C186.267 63.2001 193.867 81.7334 193.733 107.333C193.733 128 186.533 147.733 173.733 162.933C167.867 169.867 156.4 180 154.533 180C154.133 180 153.333 174 152.933 166.8C152.4 156.533 151.467 151.867 148.933 146.133C142.667 132.4 129.067 121.2 116.133 119.2L110.4 118.267L116.533 116.133C139.333 108.133 146.267 79.7334 129.333 62.9334C122.267 55.7334 117.733 54.0001 106.533 54.0001C97.6 54.0001 95.7333 54.4001 89.8667 58.0001C80.5333 63.8668 75.6 72.4001 74.9333 83.8668C74.5333 91.0668 74.9333 94.0001 77.3333 99.0668C81.0667 106.933 89.3333 114.267 97.3333 116.533L103.333 118.267L97.3333 119.2C91.0667 120.133 80.1333 125.733 75.0667 130.533C65.2 139.867 60 153.733 60 170.267C60 175.6 59.6 180 59.0667 180C56.9333 180 46.9333 171.067 40.1333 163.333C32.4 154.533 23.8667 138.133 21.2 126.667C18.9333 117.2 18.9333 96.1334 21.2 86.6668C22.1333 82.6668 25.3333 74.2668 28.2667 68.0001C32.6667 58.8001 35.8667 54.6668 45.2 45.2001C54.6667 35.8668 58.9333 32.6668 68 28.2668C74.2667 25.3334 82.6667 22.2668 86.6667 21.4668C90.6667 20.6668 95.2 19.7334 96.6667 19.4668C101.333 18.2668 121.733 19.8668 129.333 22.0001Z" fill="black"/>
</svg>
