<svg width="1343" height="1343" viewBox="0 0 1343 1343" fill="none" xmlns="http://www.w3.org/2000/svg">
<path d="M396 162.8C279.333 176 185.6 264.267 164.533 380.667C161.6 396.933 160.533 439.467 162.533 460.933C176.533 610.267 269.067 768.133 467.467 981.333C520.267 1038.13 658.4 1178.93 664.267 1182.13C666.267 1183.2 670.4 1184 673.6 1184C679.2 1184 679.333 1184 721.733 1141.73C963.067 901.333 1076.27 760.133 1137.87 622.4C1178.4 531.6 1192.93 442.133 1178.4 371.333C1164.27 301.733 1119.87 238.667 1058.27 200.4C1029.73 182.8 998.533 171.2 961.333 164.4C945.2 161.467 896.133 161.2 877.333 163.867C801.2 174.667 747.333 211.333 698.8 284.933C691.067 296.667 681.867 311.333 678.533 317.333L672.533 328.133L665.467 315.733C645.733 281.067 626.533 254.8 604.667 232.133C564.533 190.667 517.733 168.667 456.8 162.8C440.133 161.067 410.667 161.2 396 162.8Z" fill="#8E798D"/>
</svg>
