<svg width="1343" height="1343" viewBox="0 0 1343 1343" fill="none" xmlns="http://www.w3.org/2000/svg">
<path d="M396 162.8C279.333 176 185.6 264.267 164.533 380.667C161.6 396.933 160.533 439.466 162.533 460.933C176.533 610.267 269.067 768.133 467.467 981.333C520.267 1038.13 658.4 1178.93 664.267 1182.13C666.267 1183.2 670.4 1184 673.6 1184C679.2 1184 679.333 1184 721.733 1141.73C963.067 901.333 1076.27 760.133 1137.87 622.4C1178.4 531.6 1192.93 442.133 1178.4 371.333C1164.27 301.733 1119.87 238.667 1058.27 200.4C1029.73 182.8 998.533 171.2 961.333 164.4C945.2 161.467 896.133 161.2 877.333 163.867C801.2 174.667 747.333 211.333 698.8 284.933C691.067 296.667 681.867 311.333 678.533 317.333L672.533 328.133L665.467 315.733C645.733 281.067 626.533 254.8 604.667 232.133C564.533 190.667 517.733 168.666 456.8 162.8C440.133 161.066 410.667 161.2 396 162.8ZM445.333 194.8C500.667 198.666 540 215.466 576.4 250.533C592.533 266.266 603.6 279.333 617.2 299.333C627.733 314.667 643.733 342.267 653.333 361.467C657.067 368.667 661.333 375.466 662.933 376.533C668.4 380 673.2 380.533 678.8 378C683.467 375.866 684.933 373.867 693.6 357.467C747.867 254.4 795.867 211.333 871.333 197.867C900.667 192.667 938.667 192.933 966.933 198.667C1045.47 214.533 1111.87 272.533 1138.4 348.133C1151.2 384.667 1154.27 421.467 1148.53 470.667C1137.6 564 1090 666.267 1003.2 782.667C938 870.267 859.333 957.6 713.467 1104.27L672.667 1145.33L642.933 1115.6C427.333 901.067 316.8 767.067 253.2 643.333C218 574.8 199.867 515.733 194.533 452.133C188.4 379.6 210 315.6 257.067 266.533C301.733 219.866 354.667 196.4 422 193.467C424.267 193.467 434.667 194 445.333 194.8Z" fill="#DA9DA7" stroke="#DA9DA7" stroke-width="100"/>
</svg>
