<svg width="37" height="32" viewBox="0 0 37 32" fill="none" xmlns="http://www.w3.org/2000/svg">
<path d="M4.02 20.64H4.98L2.69 23.22L5.17 26H4.15L1.73 23.28V26H0.85V20.64H1.73V23.24L4.02 20.64ZM10.8077 23.31C10.8077 23.7567 10.7477 24.1533 10.6277 24.5C10.5143 24.84 10.3477 25.13 10.1277 25.37C9.91432 25.61 9.65099 25.7933 9.33766 25.92C9.03099 26.04 8.68766 26.1 8.30766 26.1C7.95432 26.1 7.62766 26.04 7.32766 25.92C7.02766 25.7933 6.76766 25.61 6.54766 25.37C6.32766 25.13 6.15432 24.84 6.02766 24.5C5.90766 24.1533 5.84766 23.7567 5.84766 23.31C5.84766 22.7167 5.94766 22.2167 6.14766 21.81C6.34766 21.3967 6.63432 21.0833 7.00766 20.87C7.38099 20.65 7.82432 20.54 8.33766 20.54C8.82432 20.54 9.25099 20.65 9.61766 20.87C9.99099 21.0833 10.281 21.3967 10.4877 21.81C10.701 22.2167 10.8077 22.7167 10.8077 23.31ZM6.75766 23.31C6.75766 23.73 6.81099 24.0967 6.91766 24.41C7.03099 24.7167 7.20432 24.9533 7.43766 25.12C7.67099 25.2867 7.96766 25.37 8.32766 25.37C8.68766 25.37 8.98432 25.2867 9.21766 25.12C9.45099 24.9533 9.62099 24.7167 9.72766 24.41C9.84099 24.0967 9.89766 23.73 9.89766 23.31C9.89766 22.8833 9.84099 22.52 9.72766 22.22C9.61432 21.92 9.44099 21.69 9.20766 21.53C8.98099 21.3633 8.68432 21.28 8.31766 21.28C7.77099 21.28 7.37432 21.46 7.12766 21.82C6.88099 22.18 6.75766 22.6767 6.75766 23.31ZM14.5523 26.1C14.079 26.1 13.6557 26.0033 13.2823 25.81C12.9157 25.6167 12.6257 25.3167 12.4123 24.91C12.2057 24.5033 12.1023 23.9833 12.1023 23.35C12.1023 22.69 12.2123 22.1533 12.4323 21.74C12.6523 21.3267 12.949 21.0233 13.3223 20.83C13.7023 20.6367 14.1323 20.54 14.6123 20.54C14.8857 20.54 15.149 20.57 15.4023 20.63C15.6557 20.6833 15.8623 20.75 16.0223 20.83L15.7523 21.56C15.5923 21.5 15.4057 21.4433 15.1923 21.39C14.979 21.3367 14.779 21.31 14.5923 21.31C14.2323 21.31 13.9357 21.3867 13.7023 21.54C13.469 21.6933 13.2957 21.92 13.1823 22.22C13.069 22.52 13.0123 22.8933 13.0123 23.34C13.0123 23.7667 13.069 24.13 13.1823 24.43C13.2957 24.73 13.4657 24.9567 13.6923 25.11C13.919 25.2633 14.2023 25.34 14.5423 25.34C14.8357 25.34 15.0923 25.31 15.3123 25.25C15.539 25.19 15.7457 25.1167 15.9323 25.03V25.81C15.7523 25.9033 15.5523 25.9733 15.3323 26.02C15.119 26.0733 14.859 26.1 14.5523 26.1ZM23.157 20.64V26H22.367V22.58C22.367 22.44 22.3704 22.2933 22.377 22.14C22.3904 21.9867 22.4037 21.8367 22.417 21.69H22.387L20.637 26H19.897L18.197 21.69H18.167C18.1804 21.8367 18.187 21.9867 18.187 22.14C18.1937 22.2933 18.197 22.45 18.197 22.61V26H17.407V20.64H18.577L20.267 24.95L21.987 20.64H23.157ZM29.728 23.31C29.728 23.7567 29.668 24.1533 29.548 24.5C29.4346 24.84 29.268 25.13 29.048 25.37C28.8346 25.61 28.5713 25.7933 28.258 25.92C27.9513 26.04 27.608 26.1 27.228 26.1C26.8746 26.1 26.548 26.04 26.248 25.92C25.948 25.7933 25.688 25.61 25.468 25.37C25.248 25.13 25.0746 24.84 24.948 24.5C24.828 24.1533 24.768 23.7567 24.768 23.31C24.768 22.7167 24.868 22.2167 25.068 21.81C25.268 21.3967 25.5546 21.0833 25.928 20.87C26.3013 20.65 26.7446 20.54 27.258 20.54C27.7446 20.54 28.1713 20.65 28.538 20.87C28.9113 21.0833 29.2013 21.3967 29.408 21.81C29.6213 22.2167 29.728 22.7167 29.728 23.31ZM25.678 23.31C25.678 23.73 25.7313 24.0967 25.838 24.41C25.9513 24.7167 26.1246 24.9533 26.358 25.12C26.5913 25.2867 26.888 25.37 27.248 25.37C27.608 25.37 27.9046 25.2867 28.138 25.12C28.3713 24.9533 28.5413 24.7167 28.648 24.41C28.7613 24.0967 28.818 23.73 28.818 23.31C28.818 22.8833 28.7613 22.52 28.648 22.22C28.5346 21.92 28.3613 21.69 28.128 21.53C27.9013 21.3633 27.6046 21.28 27.238 21.28C26.6913 21.28 26.2946 21.46 26.048 21.82C25.8013 22.18 25.678 22.6767 25.678 23.31ZM33.4727 26.1C32.9993 26.1 32.576 26.0033 32.2027 25.81C31.836 25.6167 31.546 25.3167 31.3327 24.91C31.126 24.5033 31.0227 23.9833 31.0227 23.35C31.0227 22.69 31.1327 22.1533 31.3527 21.74C31.5727 21.3267 31.8693 21.0233 32.2427 20.83C32.6227 20.6367 33.0527 20.54 33.5327 20.54C33.806 20.54 34.0693 20.57 34.3227 20.63C34.576 20.6833 34.7827 20.75 34.9427 20.83L34.6727 21.56C34.5127 21.5 34.326 21.4433 34.1127 21.39C33.8993 21.3367 33.6993 21.31 33.5127 21.31C33.1527 21.31 32.856 21.3867 32.6227 21.54C32.3893 21.6933 32.216 21.92 32.1027 22.22C31.9893 22.52 31.9327 22.8933 31.9327 23.34C31.9327 23.7667 31.9893 24.13 32.1027 24.43C32.216 24.73 32.386 24.9567 32.6127 25.11C32.8393 25.2633 33.1227 25.34 33.4627 25.34C33.756 25.34 34.0127 25.31 34.2327 25.25C34.4593 25.19 34.666 25.1167 34.8527 25.03V25.81C34.6727 25.9033 34.4727 25.9733 34.2527 26.02C34.0393 26.0733 33.7793 26.1 33.4727 26.1Z" fill="black"/>
<path d="M8.415 6.605L6.165 11.33L8.67 17H6.12L4.14 12.455H3.225V17H0.825V6.605H3.225V10.7H4.2L6.12 6.605H8.415ZM16.744 17H14.449V13.04C14.449 11.69 14.549 10.335 14.749 8.975L12.259 17H9.40898V6.605H11.689V10.625C11.689 11.435 11.664 12.14 11.614 12.74C11.564 13.34 11.494 13.97 11.404 14.63L13.924 6.605H16.744V17ZM23.3835 17V12.53H20.7885V17H18.3885V6.605H20.7885V10.655H23.3835V6.605H25.7835V17H23.3835ZM31.3119 6.35C32.6819 6.35 33.7369 6.815 34.4769 7.745C35.2169 8.665 35.5869 10.015 35.5869 11.795C35.5869 13.555 35.2119 14.905 34.4619 15.845C33.7219 16.785 32.6719 17.255 31.3119 17.255C29.9519 17.255 28.8969 16.79 28.1469 15.86C27.4069 14.93 27.0369 13.575 27.0369 11.795C27.0369 10.045 27.4069 8.7 28.1469 7.76C28.8969 6.82 29.9519 6.35 31.3119 6.35ZM31.3119 8.105C30.7019 8.105 30.2519 8.39 29.9619 8.96C29.6819 9.53 29.5419 10.475 29.5419 11.795C29.5419 13.135 29.6869 14.09 29.9769 14.66C30.2669 15.22 30.7119 15.5 31.3119 15.5C31.9219 15.5 32.3669 15.22 32.6469 14.66C32.9369 14.09 33.0819 13.135 33.0819 11.795C33.0819 10.475 32.9369 9.53 32.6469 8.96C32.3669 8.39 31.9219 8.105 31.3119 8.105Z" fill="black"/>
</svg>
