<svg width="512" height="513" viewBox="0 0 512 513" fill="none" xmlns="http://www.w3.org/2000/svg">
<path d="M210.376 110.025L205.723 116.378L117.85 175.258C69.5289 207.651 23.2658 238.702 15.0333 244.25L0 254.451L8.14302 266.532C12.7067 273.422 16.7335 278.523 17.2704 278.254C17.8968 277.986 55.9273 252.572 101.922 221.79C147.917 191.007 185.679 165.952 185.858 166.131C186.037 166.31 185.768 169.173 185.231 172.484C183.8 181.522 183.979 203.446 185.679 212.752C189.527 234.676 196.775 252.662 208.945 270.022L213.866 277.18L141.205 349.841L68.4551 422.591L79.0142 433.061L89.4838 443.62L162.234 370.87L234.895 298.209L241.338 302.683C258.966 315.121 277.489 322.638 299.323 326.396C309.524 328.097 330.195 328.365 339.68 326.844C342.991 326.307 345.765 326.038 345.944 326.217C346.123 326.396 321.068 364.159 290.285 410.153C259.503 456.148 234.09 494.178 233.821 494.805C233.553 495.342 238.653 499.369 245.543 503.932L257.624 512.075L267.825 497.042C273.373 488.809 304.424 442.546 336.817 394.225L395.697 306.352L402.051 301.699L408.404 297.046L299.323 316.419C264.961 300.044 264.044 307.65 229.861 273.467C195.679 239.284 210.332 247.114 193.956 212.752L215.029 103.671L210.376 110.025Z" fill="black"/>
<path d="M442.344 256.539C455.099 232.895 460.809 204.782 458.352 178.122C457.659 170.27 454.923 156.771 452.573 149.362C446.615 130.527 434.915 110.495 421.705 96.5768C413.434 87.8519 408.983 84.1527 397.813 76.6578C386.643 69.1629 381.533 66.4465 370.323 62.1003C352.094 54.9872 328.704 51.7985 308.597 53.6636C300.745 54.3564 287.247 57.0918 279.838 59.4425C260.957 65.3703 240.94 77.1445 227.052 90.31C215.783 101.021 218.795 96.8217 172.433 165.628L181.876 160.727L186.574 161.724L185.232 170.1L184.56 176.153L183.49 190.866L183.87 198.508C185.479 229.329 198.608 260.557 219.611 283.527C228.402 293.119 233.254 297.282 244.677 304.882C250.352 308.69 256.623 312.573 259.111 313.79C273.64 320.817 287.342 325.021 302.677 327.082C318.892 329.279 332.607 328.828 348.525 325.577C364.189 322.415 376.096 317.899 390.058 309.838C403.154 302.296 413.43 294.029 423.716 282.853C428.342 277.793 438.953 262.752 442.344 256.539ZM411.201 260.849C404.123 267.439 393.323 270.883 383.717 269.556C377.183 268.671 372.13 266.642 367.381 263.001C357.331 255.286 352.44 243.84 353.91 231.414C354.583 225.775 356.223 221.497 359.581 216.492C369.894 201.123 389.456 196.689 405.575 206.079C410.744 209.094 414.538 213 417.834 218.711C422.644 226.993 423.64 238.352 420.345 247.221C418.796 251.365 414.479 257.799 411.201 260.849ZM407.454 166.583C398.356 174.734 385.484 177.501 373.721 173.884C371.335 173.191 369.07 171.931 365.139 169.292C360.537 166.204 359.45 165.216 357.325 162.3C353.861 157.708 351.934 153.434 350.846 148.104C347.464 131.32 356.496 114.961 372.422 108.995C380.34 106.079 389.502 106.136 397.253 109.263C420.639 118.734 426.217 149.821 407.454 166.583ZM322.312 293.474C310.61 303.96 293.072 305.28 280.174 296.691C263.881 285.823 260.026 262.502 271.98 247.196C284.833 230.745 308.625 229.085 323.356 243.634C337.343 257.36 336.856 280.489 322.312 293.474ZM325.811 201.155C324.526 201.718 322.36 202.145 320.958 202.111C318.794 202.149 318.004 201.878 315.099 199.929C312.195 197.981 311.645 197.352 310.86 195.335C310.297 194.05 309.871 191.885 309.905 190.482C309.866 188.318 310.137 187.528 312.086 184.624C314.035 181.72 314.663 181.17 316.68 180.385C320.341 178.888 323.563 179.107 326.856 181.057C331.146 183.547 333.148 187.612 332.551 192.654C332.184 195.712 328.799 199.985 325.811 201.155ZM314.824 142.4C307.988 147.662 297.503 150.541 289.254 149.412C282.751 148.482 278.279 146.648 272.993 142.648C263.985 135.891 259.253 126.43 259.316 115.134C259.31 97.1814 273.457 82.1812 291.428 81.0857C315.906 79.562 333.922 103.314 326.003 126.704C324.301 131.848 319.131 139.07 314.824 142.4ZM263.885 219.281C245.526 235.731 216.374 228.093 208.445 204.759C204.82 194.034 206.993 181.236 213.898 172.587C222.706 161.585 236.523 157.119 250.495 160.727C255.192 161.935 262.417 166.329 265.912 170.1C275.18 180.141 277.879 195.819 272.381 207.875C270.848 211.318 266.893 216.634 263.885 219.281Z" fill="black"/>
</svg>
